<svg xmlns="http://www.w3.org/2000/svg" viewBox="0 0 3.91 23.01"><defs><style>.cls-1{fill:#fff;}</style></defs><title>dots</title><g id="Layer_2" data-name="Layer 2"><path class="cls-1" d="M4.52,2.51a2,2,0,1,1-2-1.95A2,2,0,0,1,4.52,2.51Z" transform="translate(-0.61 -0.56)"/><path class="cls-1" d="M2.24,10.64A2,2,0,1,1,4.49,9,2,2,0,0,1,2.24,10.64Z" transform="translate(-0.61 -0.56)"/><path class="cls-1" d="M4.52,15.41a2,2,0,1,1-2-1.95A2,2,0,0,1,4.52,15.41Z" transform="translate(-0.61 -0.56)"/><path class="cls-1" d="M2.24,23.54a2,2,0,1,1,2.25-1.6A2,2,0,0,1,2.24,23.54Z" transform="translate(-0.61 -0.56)"/></g></svg>